<svg xmlns="http://www.w3.org/2000/svg" width="40.638" height="69.001" viewBox="0 0 40.638 69.001">
  <defs>
    <style>
      .cls-1 {
        fill: #fdbd3c;
        stroke: #fdbd3c;
      }

      .cls-2 {
        stroke: #000;
      }
    </style>
  </defs>
  <g id="_4151229" data-name="4151229" transform="translate(0.5 0.5)">
    <path id="Path_19478" data-name="Path 19478" class="cls-1" d="M146.778,248.375v11.561a1.328,1.328,0,0,0,2.656,0V248.375a1.328,1.328,0,1,0-2.656,0Z" transform="translate(-139.539 -214.236)"/>
    <path id="Path_19479" data-name="Path 19479" class="cls-1" d="M148.106,68.9a1.328,1.328,0,0,0,1.328-1.328V61.328a1.328,1.328,0,1,0-2.656,0v6.249A1.328,1.328,0,0,0,148.106,68.9Z" transform="translate(-139.539 -52.031)"/>
    <path id="Path_19480" data-name="Path 19480" class="cls-2" d="M142.431,0H110.762a3.989,3.989,0,0,0-3.984,3.984V64.016A3.989,3.989,0,0,0,110.762,68h31.669a3.989,3.989,0,0,0,3.984-3.984V61.36h0l-.005-15.274a1.328,1.328,0,0,0-1.328-1.328h0a1.328,1.328,0,0,0-1.328,1.329l.005,10.76H109.435V30.155h34.314l-.043,5.3a1.328,1.328,0,0,0,1.317,1.339h.011a1.328,1.328,0,0,0,1.328-1.317l.054-6.634s0,0,0-.006,0-24.848,0-24.848A3.989,3.989,0,0,0,142.431,0ZM110.762,2.656h31.669a1.33,1.33,0,0,1,1.328,1.328v18.2H109.434V3.984A1.33,1.33,0,0,1,110.762,2.656Zm33,61.36a1.33,1.33,0,0,1-1.328,1.328H110.762a1.33,1.33,0,0,1-1.328-1.328V59.5H143.76ZM109.434,24.842h34.325V27.5H109.434Z" transform="translate(-106.778 0)"/>
    <circle id="Ellipse_9023" data-name="Ellipse 9023" class="cls-2" cx="1.328" cy="1.328" r="1.328" transform="translate(36.952 39.446)"/>
  </g>
</svg>
