<svg xmlns="http://www.w3.org/2000/svg" width="110.114" height="66.799" viewBox="0 0 110.114 66.799">
  <defs>
    <style>
      .cls-1 {
        fill: #fdbd3c;
      }
    </style>
  </defs>
  <g id="_1530297" data-name="1530297" transform="translate(0 -100.486)">
    <path id="Path_19505" data-name="Path 19505" d="M102.374,100.486H26.182a1.616,1.616,0,0,0,0,3.233h76.193a4.512,4.512,0,0,1,4.507,4.507v34.417a4.512,4.512,0,0,1-4.507,4.507H98.5V136.618A1.616,1.616,0,0,0,96.887,135H13.226a1.616,1.616,0,0,0-1.616,1.616V147.15H7.74a4.512,4.512,0,0,1-4.507-4.507V108.226a4.512,4.512,0,0,1,4.507-4.507H19.716a1.616,1.616,0,0,0,0-3.233H7.74A7.748,7.748,0,0,0,0,108.226v34.417a7.748,7.748,0,0,0,7.74,7.74H24.566a1.616,1.616,0,0,0,0-3.233H14.843v-2.841h64.24a1.616,1.616,0,0,0,0-3.233H14.843v-2.841H95.271v2.841H85.548a1.616,1.616,0,0,0,0,3.233h9.723v2.841H31.031a1.616,1.616,0,1,0,0,3.233h71.343a7.748,7.748,0,0,0,7.74-7.74V108.226A7.749,7.749,0,0,0,102.374,100.486Z"/>
    <path id="Path_19506" data-name="Path 19506" class="cls-1" d="M426.257,149.7a1.616,1.616,0,0,0,0-3.233h-4.781a1.616,1.616,0,1,0,0,3.233Z" transform="translate(-329.37 -36.071)"/>
    <path id="Path_19507" data-name="Path 19507" class="cls-1" d="M275.895,149.7a1.616,1.616,0,0,0,0-3.233H245.3a1.616,1.616,0,0,0,0,3.233Z" transform="translate(-191.163 -36.071)"/>
    <path id="Path_19508" data-name="Path 19508" d="M116.212,352.064a1.616,1.616,0,0,0-1.616,1.616,10.675,10.675,0,0,1-4.536,8.027,1.616,1.616,0,1,0,1.873,2.635,13.9,13.9,0,0,0,5.9-10.662A1.617,1.617,0,0,0,116.212,352.064Z" transform="translate(-85.805 -197.357)"/>
    <path id="Path_19509" data-name="Path 19509" d="M188.9,352.064a1.616,1.616,0,0,0-1.616,1.616v9.345a1.616,1.616,0,1,0,3.233,0V353.68A1.616,1.616,0,0,0,188.9,352.064Z" transform="translate(-146.919 -197.357)"/>
    <path id="Path_19510" data-name="Path 19510" d="M251.68,352.064a1.616,1.616,0,0,0-1.616,1.616v9.345a1.616,1.616,0,1,0,3.233,0V353.68A1.616,1.616,0,0,0,251.68,352.064Z" transform="translate(-196.169 -197.357)"/>
    <path id="Path_19511" data-name="Path 19511" d="M370.1,361.708a10.638,10.638,0,0,1-4.536-8.035,1.616,1.616,0,0,0-3.233.007,13.9,13.9,0,0,0,5.9,10.662,1.617,1.617,0,1,0,1.873-2.635Z" transform="translate(-284.237 -197.357)"/>
    <path id="Path_19512" data-name="Path 19512" d="M310.242,352.064a1.616,1.616,0,0,0-1.616,1.616v9.345a1.616,1.616,0,0,0,3.233,0V353.68A1.616,1.616,0,0,0,310.242,352.064Z" transform="translate(-242.109 -197.357)"/>
  </g>
</svg>
