<svg xmlns="http://www.w3.org/2000/svg" width="48.854" height="56.181" viewBox="0 0 48.854 56.181">
  <defs>
    <style>
      .cls-1 {
        stroke: #000;
      }

      .cls-2 {
        fill: #fdbd3c;
      }
    </style>
  </defs>
  <g id="Component_1_1" data-name="Component 1 – 1" transform="translate(0.5 0.5)">
    <path id="_2771601" data-name="2771601" class="cls-1" d="M75.16,0H36.694A4.7,4.7,0,0,0,32,4.694V50.487a4.7,4.7,0,0,0,4.694,4.694H75.16a4.7,4.7,0,0,0,4.694-4.694V4.694A4.7,4.7,0,0,0,75.16,0Zm2.633,50.487A2.636,2.636,0,0,1,75.16,53.12H36.694a2.636,2.636,0,0,1-2.633-2.633V12.479H73.787a1.03,1.03,0,1,0,0-2.061H34.061V4.694a2.636,2.636,0,0,1,2.633-2.633H75.16a2.636,2.636,0,0,1,2.633,2.633ZM59.934,6.411a1.03,1.03,0,0,1-1.03,1.03H52.951a1.03,1.03,0,0,1,0-2.061H58.9A1.03,1.03,0,0,1,59.934,6.411Zm8.128,0a1.03,1.03,0,0,1-1.03,1.03h-1.6a1.03,1.03,0,0,1,0-2.061h1.6A1.03,1.03,0,0,1,68.062,6.411Zm-20.607,0a1.03,1.03,0,0,1-1.03,1.03h-1.6a1.03,1.03,0,0,1,0-2.061h1.6A1.03,1.03,0,0,1,47.455,6.411ZM66,39.039a10.084,10.084,0,0,1-6.763,9.517,1.03,1.03,0,1,1-.677-1.946,8.018,8.018,0,0,0,0-15.142,1.03,1.03,0,1,1,.677-1.946A10.084,10.084,0,0,1,66,39.039ZM47.913,28.964A10.075,10.075,0,1,0,57.988,39.039,10.086,10.086,0,0,0,47.913,28.964Zm0,18.088a8.014,8.014,0,1,1,8.014-8.014A8.023,8.023,0,0,1,47.913,47.053Zm26.1-8.014a10.084,10.084,0,0,1-6.763,9.517,1.03,1.03,0,0,1-.677-1.946,8.018,8.018,0,0,0,0-15.142,1.03,1.03,0,0,1,.677-1.946A10.084,10.084,0,0,1,74.016,39.039ZM54.9,23.011v-5.5a1.03,1.03,0,1,1,2.061,0v5.5a1.03,1.03,0,1,1-2.061,0ZM46.54,20.478l2.039-3.947a1.03,1.03,0,1,1,1.831.946l-2.039,3.947a1.03,1.03,0,1,1-1.831-.946Zm14.79-3a1.03,1.03,0,1,1,1.831-.946L65.2,20.478a1.03,1.03,0,1,1-1.831.946Z" transform="translate(-32)"/>
    <rect id="Rectangle_1809" data-name="Rectangle 1809" class="cls-2" width="3.853" height="8.669" rx="1.926" transform="translate(22.334 15.838) rotate(1)"/>
    <rect id="Rectangle_1811" data-name="Rectangle 1811" class="cls-2" width="3.853" height="8.669" rx="1.926" transform="matrix(-0.891, 0.454, -0.454, -0.891, 34.869, 21.783)"/>
    <rect id="Rectangle_1810" data-name="Rectangle 1810" class="cls-2" width="3.853" height="9.632" rx="1.926" transform="translate(15.83 24.352) rotate(-151)"/>
  </g>
</svg>
