<svg xmlns="http://www.w3.org/2000/svg" width="65.401" height="71.345" viewBox="0 0 65.401 71.345">
  <defs>
    <style>
      .cls-1 {
        fill: #fdbd3c;
      }
    </style>
  </defs>
  <g id="_637213" data-name="637213" transform="translate(-21.328 0)">
    <g id="Group_14945" data-name="Group 14945" transform="translate(39.312 0)">
      <g id="Group_14944" data-name="Group 14944" transform="translate(0 0)">
        <path id="Path_19493" data-name="Path 19493" class="cls-1" d="M154.674,9.919c-1.222-2.47-2.185-4.421-.059-7.61A1.486,1.486,0,0,0,152.141.662c-3.08,4.614-1.445,7.919-.131,10.574,1.228,2.485,2.117,4.281.131,7.262a1.485,1.485,0,1,0,2.47,1.647C157.551,15.74,155.958,12.511,154.674,9.919Z" transform="translate(-150.382 0)"/>
      </g>
    </g>
    <g id="Group_14947" data-name="Group 14947" transform="translate(51.154 0)">
      <g id="Group_14946" data-name="Group 14946" transform="translate(0 0)">
        <path id="Path_19494" data-name="Path 19494" class="cls-1" d="M239.661,9.919c-1.225-2.47-2.188-4.421-.062-7.61A1.486,1.486,0,0,0,237.125.662c-3.077,4.617-1.442,7.922-.131,10.577,1.228,2.485,2.117,4.281.131,7.26a1.488,1.488,0,0,0,.413,2.06,1.47,1.47,0,0,0,.823.25,1.485,1.485,0,0,0,1.237-.663C242.538,15.74,240.945,12.511,239.661,9.919Z" transform="translate(-235.369 0)"/>
      </g>
    </g>
    <g id="Group_14949" data-name="Group 14949" transform="translate(62.995 0)">
      <g id="Group_14948" data-name="Group 14948" transform="translate(0 0)">
        <path id="Path_19495" data-name="Path 19495" class="cls-1" d="M324.632,9.919c-1.225-2.47-2.188-4.421-.062-7.61A1.486,1.486,0,0,0,322.1.662c-3.077,4.617-1.442,7.922-.131,10.577,1.228,2.485,2.117,4.281.131,7.26a1.488,1.488,0,0,0,.413,2.06,1.484,1.484,0,0,0,2.06-.413C327.509,15.74,325.916,12.511,324.632,9.919Z" transform="translate(-320.34 0)"/>
      </g>
    </g>
    <g id="Group_14951" data-name="Group 14951" transform="translate(21.328 23.781)">
      <g id="Group_14950" data-name="Group 14950">
        <path id="Path_19496" data-name="Path 19496" d="M79.3,170.655H28.76a7.44,7.44,0,0,0-7.432,7.432v26.755a7.44,7.44,0,0,0,7.432,7.432H79.3a7.44,7.44,0,0,0,7.432-7.432V178.087A7.44,7.44,0,0,0,79.3,170.655Zm4.459,34.187A4.465,4.465,0,0,1,79.3,209.3H28.76a4.465,4.465,0,0,1-4.459-4.459V178.087a4.465,4.465,0,0,1,4.459-4.459H79.3a4.465,4.465,0,0,1,4.459,4.459Z" transform="translate(-21.328 -170.655)"/>
      </g>
    </g>
    <g id="Group_14953" data-name="Group 14953" transform="translate(30.246 29.726)">
      <g id="Group_14952" data-name="Group 14952">
        <path id="Path_19497" data-name="Path 19497" d="M86.813,213.322a1.487,1.487,0,0,0-1.486,1.486v26.755a1.486,1.486,0,1,0,2.973,0V214.808A1.487,1.487,0,0,0,86.813,213.322Z" transform="translate(-85.327 -213.322)"/>
      </g>
    </g>
    <g id="Group_14955" data-name="Group 14955" transform="translate(39.165 29.726)">
      <g id="Group_14954" data-name="Group 14954">
        <path id="Path_19498" data-name="Path 19498" d="M150.813,213.322a1.487,1.487,0,0,0-1.486,1.486v26.755a1.486,1.486,0,1,0,2.973,0V214.808A1.487,1.487,0,0,0,150.813,213.322Z" transform="translate(-149.327 -213.322)"/>
      </g>
    </g>
    <g id="Group_14957" data-name="Group 14957" transform="translate(48.083 29.726)">
      <g id="Group_14956" data-name="Group 14956" transform="translate(0)">
        <path id="Path_19499" data-name="Path 19499" d="M214.813,213.322a1.487,1.487,0,0,0-1.486,1.486v26.755a1.486,1.486,0,1,0,2.973,0V214.808A1.487,1.487,0,0,0,214.813,213.322Z" transform="translate(-213.327 -213.322)"/>
      </g>
    </g>
    <g id="Group_14959" data-name="Group 14959" transform="translate(57.001 29.726)">
      <g id="Group_14958" data-name="Group 14958">
        <path id="Path_19500" data-name="Path 19500" d="M278.813,213.322a1.487,1.487,0,0,0-1.486,1.486v26.755a1.486,1.486,0,1,0,2.973,0V214.808A1.487,1.487,0,0,0,278.813,213.322Z" transform="translate(-277.327 -213.322)"/>
      </g>
    </g>
    <g id="Group_14961" data-name="Group 14961" transform="translate(65.92 29.726)">
      <g id="Group_14960" data-name="Group 14960">
        <path id="Path_19501" data-name="Path 19501" d="M342.813,213.322a1.487,1.487,0,0,0-1.486,1.486v26.755a1.486,1.486,0,0,0,2.973,0V214.808A1.487,1.487,0,0,0,342.813,213.322Z" transform="translate(-341.327 -213.322)"/>
      </g>
    </g>
    <g id="Group_14963" data-name="Group 14963" transform="translate(74.838 29.726)">
      <g id="Group_14962" data-name="Group 14962">
        <path id="Path_19502" data-name="Path 19502" d="M406.813,213.322a1.487,1.487,0,0,0-1.486,1.486v26.755a1.486,1.486,0,0,0,2.973,0V214.808A1.487,1.487,0,0,0,406.813,213.322Z" transform="translate(-405.327 -213.322)"/>
      </g>
    </g>
    <g id="Group_14965" data-name="Group 14965" transform="translate(33.219 62.427)">
      <g id="Group_14964" data-name="Group 14964" transform="translate(0)">
        <path id="Path_19503" data-name="Path 19503" d="M108.147,447.989a1.487,1.487,0,0,0-1.486,1.486v5.946a1.486,1.486,0,1,0,2.973,0v-5.946A1.487,1.487,0,0,0,108.147,447.989Z" transform="translate(-106.661 -447.989)"/>
      </g>
    </g>
    <g id="Group_14967" data-name="Group 14967" transform="translate(71.865 62.427)">
      <g id="Group_14966" data-name="Group 14966">
        <path id="Path_19504" data-name="Path 19504" d="M385.48,447.989a1.487,1.487,0,0,0-1.486,1.486v5.946a1.486,1.486,0,1,0,2.973,0v-5.946A1.487,1.487,0,0,0,385.48,447.989Z" transform="translate(-383.994 -447.989)"/>
      </g>
    </g>
  </g>
</svg>
