<svg xmlns="http://www.w3.org/2000/svg" width="69.579" height="53" viewBox="0 0 69.579 53">
  <defs>
    <style>
      .cls-1 {
        fill: #fdbd3c;
      }
    </style>
  </defs>
  <g id="_3141479" data-name="3141479" transform="translate(0 -61)">
    <path id="Path_19488" data-name="Path 19488" d="M63.464,61H6.115A6.122,6.122,0,0,0,0,67.115v36.421a6.122,6.122,0,0,0,6.115,6.115H8.833v2.31a2.038,2.038,0,0,0,4.077,0v-2.31H56.669v2.31a2.038,2.038,0,0,0,4.077,0v-2.31h2.718a6.122,6.122,0,0,0,6.115-6.115V67.115A6.122,6.122,0,0,0,63.464,61ZM47.972,105.574H6.115a2.041,2.041,0,0,1-2.038-2.038V67.115a2.041,2.041,0,0,1,2.038-2.038H47.972ZM65.5,103.536a2.041,2.041,0,0,1-2.038,2.038H52.049V74.862H65.5Zm0-32.751H52.049V65.077H63.464A2.041,2.041,0,0,1,65.5,67.115Z"/>
    <path id="Path_19489" data-name="Path 19489" d="M417.054,327.438a2.038,2.038,0,1,0,1.408-2.348A2.037,2.037,0,0,0,417.054,327.438Z" transform="translate(-360.346 -228.124)"/>
    <path id="Path_19490" data-name="Path 19490" d="M417.054,263.438a2.038,2.038,0,1,0,1.408-2.348A2.037,2.037,0,0,0,417.054,263.438Z" transform="translate(-360.346 -172.822)"/>
    <path id="Path_19491" data-name="Path 19491" d="M417.054,199.438a2.038,2.038,0,1,0,1.408-2.348A2.037,2.037,0,0,0,417.054,199.438Z" transform="translate(-360.346 -117.519)"/>
    <path id="Path_19492" data-name="Path 19492" class="cls-1" d="M71.115,156.256H93.4a6.122,6.122,0,0,0,6.115-6.115V131.115A6.122,6.122,0,0,0,93.4,125H71.115A6.122,6.122,0,0,0,65,131.115v19.026A6.122,6.122,0,0,0,71.115,156.256Zm-2.038-25.141a2.041,2.041,0,0,1,2.038-2.038H93.4a2.041,2.041,0,0,1,2.038,2.038v19.026a2.041,2.041,0,0,1-2.038,2.038H71.115a2.041,2.041,0,0,1-2.038-2.038Z" transform="translate(-56.167 -55.303)"/>
  </g>
</svg>
