<svg xmlns="http://www.w3.org/2000/svg" width="58.308" height="58.308" viewBox="0 0 58.308 58.308">
  <defs>
    <style>
      .cls-1 {
        stroke: #000;
      }

      .cls-2 {
        fill: #f4ba43;
      }
    </style>
  </defs>
  <g id="Component_1_1" data-name="Component 1 – 1" transform="translate(0.5 0.5)">
    <path id="_2771597" data-name="2771597" class="cls-1" d="M48.629,0H8.679A8.689,8.689,0,0,0,0,8.679V48.629a8.689,8.689,0,0,0,8.679,8.679H48.629a8.689,8.689,0,0,0,8.679-8.679V8.679A8.689,8.689,0,0,0,48.629,0Zm6.539,48.629a6.547,6.547,0,0,1-6.539,6.539H8.679A6.547,6.547,0,0,1,2.14,48.629V8.679A6.547,6.547,0,0,1,8.679,2.14H48.629a6.547,6.547,0,0,1,6.539,6.539ZM26.752,16.289a1.07,1.07,0,0,1-2.14,0A8.323,8.323,0,1,0,21.825,22.5a1.07,1.07,0,0,1,1.424,1.6,10.463,10.463,0,1,1,3.5-7.812Zm-14.386,0a3.924,3.924,0,1,0,3.924-3.924A3.928,3.928,0,0,0,12.365,16.289Zm5.707,0a1.783,1.783,0,1,1-1.783-1.783A1.785,1.785,0,0,1,18.072,16.289Zm19.5,0a3.924,3.924,0,1,0,3.924-3.924A3.928,3.928,0,0,0,37.571,16.289Zm5.707,0a1.783,1.783,0,1,1-1.783-1.783A1.785,1.785,0,0,1,43.278,16.289Zm6.154-6.817a10.463,10.463,0,1,1-7.938-3.646,1.07,1.07,0,1,1,0,2.14,8.323,8.323,0,1,0,6.315,2.9,1.07,1.07,0,0,1,1.623-1.395Zm-33.144,28.1a3.924,3.924,0,1,0,3.924,3.924A3.928,3.928,0,0,0,16.289,37.571Zm0,5.707a1.783,1.783,0,1,1,1.783-1.783A1.785,1.785,0,0,1,16.289,43.278Zm7.4,5.615a1.07,1.07,0,0,1-1.513-1.513,8.323,8.323,0,1,0-5.885,2.438,1.07,1.07,0,0,1,0,2.14,10.463,10.463,0,1,1,7.4-3.065Z"/>
    <circle id="Ellipse_9024" data-name="Ellipse 9024" class="cls-2" cx="3" cy="3" r="3" transform="translate(44.049 32.5)"/>
    <circle id="Ellipse_9025" data-name="Ellipse 9025" class="cls-2" cx="3" cy="3" r="3" transform="translate(44.049 40.5)"/>
    <circle id="Ellipse_9026" data-name="Ellipse 9026" class="cls-2" cx="3" cy="3" r="3" transform="translate(36.049 40.5)"/>
  </g>
</svg>
