<svg xmlns="http://www.w3.org/2000/svg" width="47.72" height="55.879" viewBox="0 0 47.72 55.879">
  <defs>
    <style>
      .cls-1 {
        stroke: #000;
      }

      .cls-1, .cls-2 {
        stroke-width: 0.5px;
      }

      .cls-2 {
        fill: #fdbd3c;
        stroke: #fdbd3c;
      }
    </style>
  </defs>
  <g id="_1010385" data-name="1010385" transform="translate(0.25 0.25)">
    <g id="Component_1_1" data-name="Component 1 – 1" transform="translate(0 0)">
      <g id="Group_14933" data-name="Group 14933" transform="translate(14.709 3.907)">
        <g id="Group_14932" data-name="Group 14932">
          <path id="Path_19482" data-name="Path 19482" class="cls-1" d="M177.152,36.126a3.434,3.434,0,1,0,3.434,3.434A3.438,3.438,0,0,0,177.152,36.126Zm0,5.246a1.812,1.812,0,1,1,1.812-1.812A1.814,1.814,0,0,1,177.152,41.372Z" transform="translate(-173.718 -36.126)"/>
        </g>
      </g>
      <g id="Group_14935" data-name="Group 14935" transform="translate(5.419 3.907)">
        <g id="Group_14934" data-name="Group 14934">
          <path id="Path_19483" data-name="Path 19483" class="cls-1" d="M91.259,36.126a3.434,3.434,0,1,0,3.434,3.434A3.438,3.438,0,0,0,91.259,36.126Zm0,5.246a1.812,1.812,0,1,1,1.812-1.812A1.814,1.814,0,0,1,91.259,41.372Z" transform="translate(-87.825 -36.126)"/>
        </g>
      </g>
      <g id="Group_14937" data-name="Group 14937" transform="translate(27.457 3.907)">
        <g id="Group_14936" data-name="Group 14936">
          <path id="Path_19484" data-name="Path 19484" class="cls-2" d="M302.758,36.126h-9.331a1.851,1.851,0,0,0-1.849,1.849v3.17a1.851,1.851,0,0,0,1.849,1.849h9.331a1.851,1.851,0,0,0,1.849-1.849v-3.17A1.851,1.851,0,0,0,302.758,36.126Zm.227,5.019a.227.227,0,0,1-.227.227h-9.331a.227.227,0,0,1-.227-.227v-3.17a.227.227,0,0,1,.227-.227h9.331a.227.227,0,0,1,.227.227Z" transform="translate(-291.578 -36.126)"/>
        </g>
      </g>
      <g id="Group_14939" data-name="Group 14939" transform="translate(8.698 16.618)">
        <g id="Group_14938" data-name="Group 14938">
          <path id="Path_19485" data-name="Path 19485" class="cls-1" d="M133.05,153.637a14.769,14.769,0,0,0-9.1,3.1.811.811,0,0,0,.992,1.284,13.161,13.161,0,0,1,8.113-2.765,13.289,13.289,0,1,1-10.3,4.9.811.811,0,0,0-1.258-1.025,14.911,14.911,0,1,0,11.563-5.5Z" transform="translate(-118.139 -153.637)"/>
        </g>
      </g>
      <g id="Group_14941" data-name="Group 14941">
        <g id="Group_14940" data-name="Group 14940">
          <path id="Path_19486" data-name="Path 19486" class="cls-1" d="M84.941,49.082V6.235A6.241,6.241,0,0,0,78.707,0H43.957a6.241,6.241,0,0,0-6.234,6.235V49.145a6.241,6.241,0,0,0,6.233,6.233h34.75a6.24,6.24,0,0,0,6.231-6.142C84.942,49.207,84.942,49.1,84.941,49.082Zm-1.622-.747H76.6a.811.811,0,0,0,0,1.622h6.644a4.619,4.619,0,0,1-4.54,3.8H43.957a4.619,4.619,0,0,1-4.54-3.8H73.358a.811.811,0,0,0,0-1.622H39.346V14.684H83.318Zm0-35.273H39.345V6.235a4.617,4.617,0,0,1,4.611-4.612h34.75a4.617,4.617,0,0,1,4.611,4.612Z" transform="translate(-37.723)"/>
        </g>
      </g>
      <g id="Group_14943" data-name="Group 14943" transform="translate(12.469 20.389)">
        <g id="Group_14942" data-name="Group 14942">
          <path id="Path_19487" data-name="Path 19487" class="cls-1" d="M164.142,188.5a11.145,11.145,0,0,0-11.024,12.747h0a11.141,11.141,0,0,0,22.048,0v0A11.146,11.146,0,0,0,164.142,188.5Zm6.256,18.312a9.52,9.52,0,0,1-15.59-5.306l.5-.34a2.516,2.516,0,0,1,2.8,0,4.152,4.152,0,0,0,4.629,0,2.52,2.52,0,0,1,2.8,0,4.152,4.152,0,0,0,4.629,0,2.51,2.51,0,0,1,2.8,0l.5.34A9.514,9.514,0,0,1,170.4,206.814Zm3.261-7.133-.018-.01a4.244,4.244,0,0,0-1.407-.5,4.039,4.039,0,0,0-1.873.127,4.119,4.119,0,0,0-1.1.532,2.516,2.516,0,0,1-2.8,0,4.111,4.111,0,0,0-4.629,0,2.512,2.512,0,0,1-2.8,0,4.109,4.109,0,0,0-4.382-.155l-.018.01c0-.013,0-.027,0-.04a9.518,9.518,0,0,1,19.035,0C173.66,199.655,173.66,199.668,173.659,199.682Z" transform="translate(-153.002 -188.502)"/>
        </g>
      </g>
    </g>
  </g>
</svg>
